<svg xmlns="http://www.w3.org/2000/svg" width="203" height="203" viewBox="0 0 203 203" fill="none"><g clip-path="url(#clip0_842_3830)"><g clip-path="url(#clip1_842_3830)"><path opacity="0.2" d="M270.833 -68.336C195.906 -68.336 135.165 -7.59539 135.165 67.332C135.165 142.259 195.906 203 270.833 203C345.761 203 406.501 142.259 406.501 67.332C406.501 -7.59537 345.761 -68.336 270.833 -68.336Z" fill="#F2F5FA"></path><path opacity="0.2" d="M135.166 -204.005C60.2382 -204.005 -0.502484 -143.264 -0.502491 -68.337C-0.502497 6.59034 60.2381 67.331 135.165 67.331C210.093 67.331 270.834 6.59036 270.834 -68.337C270.834 -143.264 210.093 -204.005 135.166 -204.005Z" fill="#F2F5FA"></path></g></g><defs><clipPath id="clip0_842_3830"><rect width="203" height="203" fill="white"></rect></clipPath><clipPath id="clip1_842_3830"><rect width="203" height="203" fill="white" transform="translate(203 203) rotate(-180)"></rect></clipPath></defs></svg>